<svg xmlns="http://www.w3.org/2000/svg" width="940" height="900" viewBox="0 0 940 900" font-family="'Hiragino Sans','Hiragino Kaku Gothic ProN','Noto Sans JP','Yu Gothic',sans-serif"><defs><linearGradient id="g-page" x1="0" y1="0" x2="1" y2="1"><stop offset="0" stop-color="#FFFFFF"/><stop offset="1" stop-color="#F3F6FB"/></linearGradient><linearGradient id="g-blue" x1="0" y1="0" x2="0" y2="1"><stop offset="0" stop-color="#EFF6FF"/><stop offset="1" stop-color="#DBEAFE"/></linearGradient><linearGradient id="g-violet" x1="0" y1="0" x2="0" y2="1"><stop offset="0" stop-color="#F6F4FF"/><stop offset="1" stop-color="#EDE9FE"/></linearGradient><linearGradient id="g-amber" x1="0" y1="0" x2="0" y2="1"><stop offset="0" stop-color="#FFFBEB"/><stop offset="1" stop-color="#FEF1C9"/></linearGradient><linearGradient id="g-teal" x1="0" y1="0" x2="0" y2="1"><stop offset="0" stop-color="#ECFDF5"/><stop offset="1" stop-color="#CCFBEF"/></linearGradient><linearGradient id="g-rose" x1="0" y1="0" x2="0" y2="1"><stop offset="0" stop-color="#FFF1F2"/><stop offset="1" stop-color="#FFE0E4"/></linearGradient><linearGradient id="g-slate" x1="0" y1="0" x2="0" y2="1"><stop offset="0" stop-color="#F8FAFC"/><stop offset="1" stop-color="#EAEFF6"/></linearGradient><marker id="arr-blue" viewBox="0 0 10 10" refX="8.5" refY="5" markerWidth="7" markerHeight="7" orient="auto-start-reverse"><path d="M0,0 L10,5 L0,10 L3,5 z" fill="#3B82F6"/></marker><marker id="arr-violet" viewBox="0 0 10 10" refX="8.5" refY="5" markerWidth="7" markerHeight="7" orient="auto-start-reverse"><path d="M0,0 L10,5 L0,10 L3,5 z" fill="#8B5CF6"/></marker><marker id="arr-amber" viewBox="0 0 10 10" refX="8.5" refY="5" markerWidth="7" markerHeight="7" orient="auto-start-reverse"><path d="M0,0 L10,5 L0,10 L3,5 z" fill="#F59E0B"/></marker><marker id="arr-teal" viewBox="0 0 10 10" refX="8.5" refY="5" markerWidth="7" markerHeight="7" orient="auto-start-reverse"><path d="M0,0 L10,5 L0,10 L3,5 z" fill="#10B981"/></marker><marker id="arr-rose" viewBox="0 0 10 10" refX="8.5" refY="5" markerWidth="7" markerHeight="7" orient="auto-start-reverse"><path d="M0,0 L10,5 L0,10 L3,5 z" fill="#F43F5E"/></marker><marker id="arr-slate" viewBox="0 0 10 10" refX="8.5" refY="5" markerWidth="7" markerHeight="7" orient="auto-start-reverse"><path d="M0,0 L10,5 L0,10 L3,5 z" fill="#64748B"/></marker><marker id="arr-gray" viewBox="0 0 10 10" refX="8.5" refY="5" markerWidth="7.5" markerHeight="7.5" orient="auto-start-reverse"><path d="M0,0 L10,5 L0,10 L3,5 z" fill="#94A3B8"/></marker><filter id="sh" x="-25%" y="-25%" width="150%" height="160%"><feDropShadow dx="0" dy="3" stdDeviation="6" flood-color="#1E293B" flood-opacity="0.13"/></filter><filter id="sh2" x="-25%" y="-25%" width="150%" height="160%"><feDropShadow dx="0" dy="1.5" stdDeviation="3" flood-color="#1E293B" flood-opacity="0.10"/></filter></defs><rect x="10" y="10" width="920" height="880" rx="30" fill="url(#g-page)" stroke="#E2E8F0" stroke-width="1.5"/><text x="470.0" y="64" font-size="31" fill="#0F172A" font-weight="800" text-anchor="middle">🤖　1人1AI時代がやってくる</text><text x="470.0" y="98.72" font-size="19" fill="#475569" font-weight="500" text-anchor="middle">ほとんどの人が、スマホで動く“自分専用のAIエージェント”を持つ</text><circle cx="190" cy="220" r="46" fill="#FFFFFF" stroke="#3B82F6" stroke-width="2.5" filter="url(#sh2)"/><text x="190" y="236" font-size="48" text-anchor="middle">🧑</text><rect x="131.0" y="273.0" width="118" height="38" rx="19.0" fill="#3B82F6" filter="url(#sh2)"/><text x="190" y="299.2" font-size="20" fill="#FFFFFF" font-weight="700" text-anchor="middle">Aさん</text><line x1="190" y1="313" x2="190" y2="340" stroke="#3B82F6" stroke-width="2.6" marker-end="url(#arr-blue)" stroke-linecap="round"/><rect x="102" y="344" width="176" height="178" rx="22" fill="url(#g-blue)" stroke="#2563EB" stroke-width="2" filter="url(#sh)"/><rect x="124" y="368" width="132" height="100" rx="10" fill="#FFFFFF" stroke="#BFDBFE" stroke-width="1.5"/><text x="190" y="436" font-size="54" text-anchor="middle">🤖</text><text x="190" y="500" font-size="19" fill="#1E3A8A" font-weight="700" text-anchor="middle">自分のAIエージェント</text><rect x="56" y="560" width="268" height="168" rx="18" fill="url(#g-violet)" stroke="#7C3AED" stroke-width="2" filter="url(#sh)"/><path d="M177,561 L203,561 L190,544 z" fill="url(#g-violet)" stroke="#7C3AED" stroke-width="2"/><rect x="177" y="558" width="26" height="6" fill="url(#g-violet)"/><text x="190" y="614" font-size="22" fill="#5B21B6" font-weight="600" text-anchor="middle"><tspan x="190" dy="0">「沖縄に行きたいから</tspan><tspan x="190" dy="36">ホテルと飛行機を</tspan><tspan x="190" dy="36">予約しといて」</tspan></text><circle cx="470" cy="220" r="46" fill="#FFFFFF" stroke="#3B82F6" stroke-width="2.5" filter="url(#sh2)"/><text x="470" y="236" font-size="48" text-anchor="middle">🧑‍🦰</text><rect x="411.0" y="273.0" width="118" height="38" rx="19.0" fill="#3B82F6" filter="url(#sh2)"/><text x="470" y="299.2" font-size="20" fill="#FFFFFF" font-weight="700" text-anchor="middle">Bさん</text><line x1="470" y1="313" x2="470" y2="340" stroke="#3B82F6" stroke-width="2.6" marker-end="url(#arr-blue)" stroke-linecap="round"/><rect x="382" y="344" width="176" height="178" rx="22" fill="url(#g-blue)" stroke="#2563EB" stroke-width="2" filter="url(#sh)"/><rect x="404" y="368" width="132" height="100" rx="10" fill="#FFFFFF" stroke="#BFDBFE" stroke-width="1.5"/><text x="470" y="436" font-size="54" text-anchor="middle">🤖</text><text x="470" y="500" font-size="19" fill="#1E3A8A" font-weight="700" text-anchor="middle">自分のAIエージェント</text><rect x="336" y="560" width="268" height="168" rx="18" fill="url(#g-violet)" stroke="#7C3AED" stroke-width="2" filter="url(#sh)"/><path d="M457,561 L483,561 L470,544 z" fill="url(#g-violet)" stroke="#7C3AED" stroke-width="2"/><rect x="457" y="558" width="26" height="6" fill="url(#g-violet)"/><text x="470" y="614" font-size="22" fill="#5B21B6" font-weight="600" text-anchor="middle"><tspan x="470" dy="0">「あの人のライブの</tspan><tspan x="470" dy="36">チケットを</tspan><tspan x="470" dy="36">買っといて」</tspan></text><circle cx="750" cy="220" r="46" fill="#FFFFFF" stroke="#3B82F6" stroke-width="2.5" filter="url(#sh2)"/><text x="750" y="236" font-size="48" text-anchor="middle">🧑‍🦱</text><rect x="691.0" y="273.0" width="118" height="38" rx="19.0" fill="#3B82F6" filter="url(#sh2)"/><text x="750" y="299.2" font-size="20" fill="#FFFFFF" font-weight="700" text-anchor="middle">Cさん</text><line x1="750" y1="313" x2="750" y2="340" stroke="#3B82F6" stroke-width="2.6" marker-end="url(#arr-blue)" stroke-linecap="round"/><rect x="662" y="344" width="176" height="178" rx="22" fill="url(#g-blue)" stroke="#2563EB" stroke-width="2" filter="url(#sh)"/><rect x="684" y="368" width="132" height="100" rx="10" fill="#FFFFFF" stroke="#BFDBFE" stroke-width="1.5"/><text x="750" y="436" font-size="54" text-anchor="middle">🤖</text><text x="750" y="500" font-size="19" fill="#1E3A8A" font-weight="700" text-anchor="middle">自分のAIエージェント</text><rect x="616" y="560" width="268" height="168" rx="18" fill="url(#g-violet)" stroke="#7C3AED" stroke-width="2" filter="url(#sh)"/><path d="M737,561 L763,561 L750,544 z" fill="url(#g-violet)" stroke="#7C3AED" stroke-width="2"/><rect x="737" y="558" width="26" height="6" fill="url(#g-violet)"/><text x="750" y="614" font-size="22" fill="#5B21B6" font-weight="600" text-anchor="middle"><tspan x="750" dy="0">「あれやって」</tspan><tspan x="750" dy="36">「これやって」</tspan><tspan x="750" dy="36">と頼むだけ</tspan></text><rect x="110.0" y="820.0" width="720" height="56" rx="28.0" fill="#0D9488" filter="url(#sh2)"/><text x="144.72" y="849.92" font-size="25.200000000000003" text-anchor="middle">💁</text><text x="484.0" y="856.64" font-size="24" fill="#FFFFFF" font-weight="800" text-anchor="middle">まるで、全員に専属の秘書がついたかのよう</text></svg>