<svg xmlns="http://www.w3.org/2000/svg" width="700" height="634" viewBox="0 0 700 634" font-family="'Hiragino Sans','Hiragino Kaku Gothic ProN','Noto Sans JP','Yu Gothic',sans-serif"><defs><linearGradient id="g-page" x1="0" y1="0" x2="1" y2="1"><stop offset="0" stop-color="#FFFFFF"/><stop offset="1" stop-color="#F3F6FB"/></linearGradient><linearGradient id="g-blue" x1="0" y1="0" x2="0" y2="1"><stop offset="0" stop-color="#EFF6FF"/><stop offset="1" stop-color="#DBEAFE"/></linearGradient><linearGradient id="g-violet" x1="0" y1="0" x2="0" y2="1"><stop offset="0" stop-color="#F6F4FF"/><stop offset="1" stop-color="#EDE9FE"/></linearGradient><linearGradient id="g-amber" x1="0" y1="0" x2="0" y2="1"><stop offset="0" stop-color="#FFFBEB"/><stop offset="1" stop-color="#FEF1C9"/></linearGradient><linearGradient id="g-teal" x1="0" y1="0" x2="0" y2="1"><stop offset="0" stop-color="#ECFDF5"/><stop offset="1" stop-color="#CCFBEF"/></linearGradient><linearGradient id="g-rose" x1="0" y1="0" x2="0" y2="1"><stop offset="0" stop-color="#FFF1F2"/><stop offset="1" stop-color="#FFE0E4"/></linearGradient><linearGradient id="g-slate" x1="0" y1="0" x2="0" y2="1"><stop offset="0" stop-color="#F8FAFC"/><stop offset="1" stop-color="#EAEFF6"/></linearGradient><marker id="arr-blue" viewBox="0 0 10 10" refX="8.5" refY="5" markerWidth="7" markerHeight="7" orient="auto-start-reverse"><path d="M0,0 L10,5 L0,10 L3,5 z" fill="#3B82F6"/></marker><marker id="arr-violet" viewBox="0 0 10 10" refX="8.5" refY="5" markerWidth="7" markerHeight="7" orient="auto-start-reverse"><path d="M0,0 L10,5 L0,10 L3,5 z" fill="#8B5CF6"/></marker><marker id="arr-amber" viewBox="0 0 10 10" refX="8.5" refY="5" markerWidth="7" markerHeight="7" orient="auto-start-reverse"><path d="M0,0 L10,5 L0,10 L3,5 z" fill="#F59E0B"/></marker><marker id="arr-teal" viewBox="0 0 10 10" refX="8.5" refY="5" markerWidth="7" markerHeight="7" orient="auto-start-reverse"><path d="M0,0 L10,5 L0,10 L3,5 z" fill="#10B981"/></marker><marker id="arr-rose" viewBox="0 0 10 10" refX="8.5" refY="5" markerWidth="7" markerHeight="7" orient="auto-start-reverse"><path d="M0,0 L10,5 L0,10 L3,5 z" fill="#F43F5E"/></marker><marker id="arr-slate" viewBox="0 0 10 10" refX="8.5" refY="5" markerWidth="7" markerHeight="7" orient="auto-start-reverse"><path d="M0,0 L10,5 L0,10 L3,5 z" fill="#64748B"/></marker><marker id="arr-gray" viewBox="0 0 10 10" refX="8.5" refY="5" markerWidth="7.5" markerHeight="7.5" orient="auto-start-reverse"><path d="M0,0 L10,5 L0,10 L3,5 z" fill="#94A3B8"/></marker><filter id="sh" x="-25%" y="-25%" width="150%" height="160%"><feDropShadow dx="0" dy="3" stdDeviation="6" flood-color="#1E293B" flood-opacity="0.13"/></filter><filter id="sh2" x="-25%" y="-25%" width="150%" height="160%"><feDropShadow dx="0" dy="1.5" stdDeviation="3" flood-color="#1E293B" flood-opacity="0.10"/></filter></defs><rect x="10" y="10" width="680" height="614" rx="30" fill="url(#g-page)" stroke="#E2E8F0" stroke-width="1.5"/><text x="350.0" y="48" font-size="23" fill="#0F172A" font-weight="800" text-anchor="middle">🤖　1人1AI時代がやってくる</text><text x="350.0" y="73.76" font-size="14" fill="#475569" font-weight="500" text-anchor="middle">ほとんどの人が、スマホで動く“自分専用のAIエージェント”を持つ</text><circle cx="132" cy="148" r="36" fill="#FFFFFF" stroke="#3B82F6" stroke-width="2.5" filter="url(#sh2)"/><text x="132" y="161" font-size="38" text-anchor="middle">🧑</text><rect x="88.0" y="183.0" width="88" height="30" rx="15.0" fill="#3B82F6" filter="url(#sh2)"/><text x="132" y="203.4" font-size="15" fill="#FFFFFF" font-weight="700" text-anchor="middle">Aさん</text><rect x="32" y="226" width="200" height="122" rx="16" fill="url(#g-violet)" stroke="#7C3AED" stroke-width="2" filter="url(#sh)"/><path d="M121,227 L143,227 L132,212 z" fill="url(#g-violet)" stroke="#7C3AED" stroke-width="2"/><rect x="121" y="224" width="22" height="6" fill="url(#g-violet)"/><text x="132" y="268" font-size="15" fill="#5B21B6" font-weight="600" text-anchor="middle"><tspan x="132" dy="0">「沖縄に行きたいから</tspan><tspan x="132" dy="28">ホテルと飛行機を</tspan><tspan x="132" dy="28">予約しといて」</tspan></text><line x1="132" y1="348" x2="132" y2="376" stroke="#3B82F6" stroke-width="2.4" marker-end="url(#arr-blue)" stroke-linecap="round"/><rect x="56" y="378" width="152" height="140" rx="20" fill="url(#g-blue)" stroke="#2563EB" stroke-width="2" filter="url(#sh)"/><rect x="76" y="396" width="112" height="74" rx="10" fill="#FFFFFF" stroke="#BFDBFE" stroke-width="1.5"/><text x="132" y="444" font-size="42" text-anchor="middle">🤖</text><text x="132" y="498" font-size="14" fill="#1E3A8A" font-weight="700" text-anchor="middle">自分のAIエージェント</text><circle cx="350" cy="148" r="36" fill="#FFFFFF" stroke="#3B82F6" stroke-width="2.5" filter="url(#sh2)"/><text x="350" y="161" font-size="38" text-anchor="middle">🧑‍🦰</text><rect x="306.0" y="183.0" width="88" height="30" rx="15.0" fill="#3B82F6" filter="url(#sh2)"/><text x="350" y="203.4" font-size="15" fill="#FFFFFF" font-weight="700" text-anchor="middle">Bさん</text><rect x="250" y="226" width="200" height="122" rx="16" fill="url(#g-violet)" stroke="#7C3AED" stroke-width="2" filter="url(#sh)"/><path d="M339,227 L361,227 L350,212 z" fill="url(#g-violet)" stroke="#7C3AED" stroke-width="2"/><rect x="339" y="224" width="22" height="6" fill="url(#g-violet)"/><text x="350" y="268" font-size="15" fill="#5B21B6" font-weight="600" text-anchor="middle"><tspan x="350" dy="0">「あの人のライブの</tspan><tspan x="350" dy="28">チケットを</tspan><tspan x="350" dy="28">買っといて」</tspan></text><line x1="350" y1="348" x2="350" y2="376" stroke="#3B82F6" stroke-width="2.4" marker-end="url(#arr-blue)" stroke-linecap="round"/><rect x="274" y="378" width="152" height="140" rx="20" fill="url(#g-blue)" stroke="#2563EB" stroke-width="2" filter="url(#sh)"/><rect x="294" y="396" width="112" height="74" rx="10" fill="#FFFFFF" stroke="#BFDBFE" stroke-width="1.5"/><text x="350" y="444" font-size="42" text-anchor="middle">🤖</text><text x="350" y="498" font-size="14" fill="#1E3A8A" font-weight="700" text-anchor="middle">自分のAIエージェント</text><circle cx="568" cy="148" r="36" fill="#FFFFFF" stroke="#3B82F6" stroke-width="2.5" filter="url(#sh2)"/><text x="568" y="161" font-size="38" text-anchor="middle">🧑‍🦱</text><rect x="524.0" y="183.0" width="88" height="30" rx="15.0" fill="#3B82F6" filter="url(#sh2)"/><text x="568" y="203.4" font-size="15" fill="#FFFFFF" font-weight="700" text-anchor="middle">Cさん</text><rect x="468" y="226" width="200" height="122" rx="16" fill="url(#g-violet)" stroke="#7C3AED" stroke-width="2" filter="url(#sh)"/><path d="M557,227 L579,227 L568,212 z" fill="url(#g-violet)" stroke="#7C3AED" stroke-width="2"/><rect x="557" y="224" width="22" height="6" fill="url(#g-violet)"/><text x="568" y="268" font-size="15" fill="#5B21B6" font-weight="600" text-anchor="middle"><tspan x="568" dy="0">「あれやって」</tspan><tspan x="568" dy="28">「これやって」</tspan><tspan x="568" dy="28">と頼むだけ</tspan></text><line x1="568" y1="348" x2="568" y2="376" stroke="#3B82F6" stroke-width="2.4" marker-end="url(#arr-blue)" stroke-linecap="round"/><rect x="492" y="378" width="152" height="140" rx="20" fill="url(#g-blue)" stroke="#2563EB" stroke-width="2" filter="url(#sh)"/><rect x="512" y="396" width="112" height="74" rx="10" fill="#FFFFFF" stroke="#BFDBFE" stroke-width="1.5"/><text x="568" y="444" font-size="42" text-anchor="middle">🤖</text><text x="568" y="498" font-size="14" fill="#1E3A8A" font-weight="700" text-anchor="middle">自分のAIエージェント</text><rect x="50.0" y="552.0" width="600" height="48" rx="24.0" fill="#0D9488" filter="url(#sh2)"/><text x="79.75999999999999" y="577.36" font-size="17.85" text-anchor="middle">💁</text><text x="362.0" y="582.12" font-size="17" fill="#FFFFFF" font-weight="800" text-anchor="middle">まるで、全員に専属の秘書がついたかのよう</text></svg>