<svg xmlns="http://www.w3.org/2000/svg" width="700" height="612" viewBox="0 0 700 612" font-family="'Hiragino Sans','Hiragino Kaku Gothic ProN','Noto Sans JP','Yu Gothic',sans-serif"><defs><linearGradient id="g-page" x1="0" y1="0" x2="1" y2="1"><stop offset="0" stop-color="#FFFFFF"/><stop offset="1" stop-color="#F3F6FB"/></linearGradient><linearGradient id="g-blue" x1="0" y1="0" x2="0" y2="1"><stop offset="0" stop-color="#EFF6FF"/><stop offset="1" stop-color="#DBEAFE"/></linearGradient><linearGradient id="g-violet" x1="0" y1="0" x2="0" y2="1"><stop offset="0" stop-color="#F6F4FF"/><stop offset="1" stop-color="#EDE9FE"/></linearGradient><linearGradient id="g-amber" x1="0" y1="0" x2="0" y2="1"><stop offset="0" stop-color="#FFFBEB"/><stop offset="1" stop-color="#FEF1C9"/></linearGradient><linearGradient id="g-teal" x1="0" y1="0" x2="0" y2="1"><stop offset="0" stop-color="#ECFDF5"/><stop offset="1" stop-color="#CCFBEF"/></linearGradient><linearGradient id="g-rose" x1="0" y1="0" x2="0" y2="1"><stop offset="0" stop-color="#FFF1F2"/><stop offset="1" stop-color="#FFE0E4"/></linearGradient><linearGradient id="g-slate" x1="0" y1="0" x2="0" y2="1"><stop offset="0" stop-color="#F8FAFC"/><stop offset="1" stop-color="#EAEFF6"/></linearGradient><marker id="arr-blue" viewBox="0 0 10 10" refX="8.5" refY="5" markerWidth="7" markerHeight="7" orient="auto-start-reverse"><path d="M0,0 L10,5 L0,10 L3,5 z" fill="#3B82F6"/></marker><marker id="arr-violet" viewBox="0 0 10 10" refX="8.5" refY="5" markerWidth="7" markerHeight="7" orient="auto-start-reverse"><path d="M0,0 L10,5 L0,10 L3,5 z" fill="#8B5CF6"/></marker><marker id="arr-amber" viewBox="0 0 10 10" refX="8.5" refY="5" markerWidth="7" markerHeight="7" orient="auto-start-reverse"><path d="M0,0 L10,5 L0,10 L3,5 z" fill="#F59E0B"/></marker><marker id="arr-teal" viewBox="0 0 10 10" refX="8.5" refY="5" markerWidth="7" markerHeight="7" orient="auto-start-reverse"><path d="M0,0 L10,5 L0,10 L3,5 z" fill="#10B981"/></marker><marker id="arr-rose" viewBox="0 0 10 10" refX="8.5" refY="5" markerWidth="7" markerHeight="7" orient="auto-start-reverse"><path d="M0,0 L10,5 L0,10 L3,5 z" fill="#F43F5E"/></marker><marker id="arr-slate" viewBox="0 0 10 10" refX="8.5" refY="5" markerWidth="7" markerHeight="7" orient="auto-start-reverse"><path d="M0,0 L10,5 L0,10 L3,5 z" fill="#64748B"/></marker><marker id="arr-gray" viewBox="0 0 10 10" refX="8.5" refY="5" markerWidth="7.5" markerHeight="7.5" orient="auto-start-reverse"><path d="M0,0 L10,5 L0,10 L3,5 z" fill="#94A3B8"/></marker><filter id="sh" x="-25%" y="-25%" width="150%" height="160%"><feDropShadow dx="0" dy="3" stdDeviation="6" flood-color="#1E293B" flood-opacity="0.13"/></filter><filter id="sh2" x="-25%" y="-25%" width="150%" height="160%"><feDropShadow dx="0" dy="1.5" stdDeviation="3" flood-color="#1E293B" flood-opacity="0.10"/></filter></defs><rect x="10" y="10" width="680" height="592" rx="30" fill="url(#g-page)" stroke="#E2E8F0" stroke-width="1.5"/><text x="350.0" y="48" font-size="23" fill="#0F172A" font-weight="800" text-anchor="middle">🛎️　今の「AI対応」は“サービス側のAI”</text><text x="350.0" y="73.76" font-size="14" fill="#475569" font-weight="500" text-anchor="middle">各サービスが、自社の案内役として AI コンシェルジュを持つ</text><rect x="56" y="118" width="152" height="92" rx="18" fill="url(#g-amber)" stroke="#D97706" stroke-width="2" filter="url(#sh)"/><text x="132" y="158" font-size="38" text-anchor="middle">🏨</text><text x="132" y="190" font-size="14.5" fill="#92400E" font-weight="700" text-anchor="middle"><tspan x="132" dy="0">ホテル予約</tspan><tspan x="132" dy="18">サービス</tspan></text><line x1="132" y1="212" x2="132" y2="240" stroke="#F59E0B" stroke-width="2.4" marker-end="url(#arr-amber)" stroke-linecap="round"/><rect x="52" y="244" width="160" height="120" rx="20" fill="url(#g-amber)" stroke="#D97706" stroke-width="2" filter="url(#sh)"/><rect x="74" y="262" width="116" height="60" rx="10" fill="#FFFFFF" stroke="#FCD9A5" stroke-width="1.5"/><text x="132" y="308" font-size="38" text-anchor="middle">🛎️</text><text x="132" y="350" font-size="14" fill="#92400E" font-weight="700" text-anchor="middle">AIコンシェルジュ</text><rect x="32" y="386" width="200" height="92" rx="16" fill="url(#g-slate)" stroke="#94A3B8" stroke-width="2" filter="url(#sh)"/><path d="M121,387 L143,387 L132,372 z" fill="url(#g-slate)" stroke="#94A3B8" stroke-width="2"/><rect x="121" y="384" width="22" height="6" fill="url(#g-slate)"/><text x="132" y="426" font-size="14.5" fill="#334155" font-weight="600" text-anchor="middle"><tspan x="132" dy="0">「どんなお部屋を</tspan><tspan x="132" dy="26">ご希望ですか？」</tspan></text><rect x="274" y="118" width="152" height="92" rx="18" fill="url(#g-amber)" stroke="#D97706" stroke-width="2" filter="url(#sh)"/><text x="350" y="158" font-size="38" text-anchor="middle">✈️</text><text x="350" y="190" font-size="14.5" fill="#92400E" font-weight="700" text-anchor="middle"><tspan x="350" dy="0">航空券</tspan><tspan x="350" dy="18">サービス</tspan></text><line x1="350" y1="212" x2="350" y2="240" stroke="#F59E0B" stroke-width="2.4" marker-end="url(#arr-amber)" stroke-linecap="round"/><rect x="270" y="244" width="160" height="120" rx="20" fill="url(#g-amber)" stroke="#D97706" stroke-width="2" filter="url(#sh)"/><rect x="292" y="262" width="116" height="60" rx="10" fill="#FFFFFF" stroke="#FCD9A5" stroke-width="1.5"/><text x="350" y="308" font-size="38" text-anchor="middle">🛎️</text><text x="350" y="350" font-size="14" fill="#92400E" font-weight="700" text-anchor="middle">AIコンシェルジュ</text><rect x="250" y="386" width="200" height="92" rx="16" fill="url(#g-slate)" stroke="#94A3B8" stroke-width="2" filter="url(#sh)"/><path d="M339,387 L361,387 L350,372 z" fill="url(#g-slate)" stroke="#94A3B8" stroke-width="2"/><rect x="339" y="384" width="22" height="6" fill="url(#g-slate)"/><text x="350" y="426" font-size="14.5" fill="#334155" font-weight="600" text-anchor="middle"><tspan x="350" dy="0">「行き先はどちら</tspan><tspan x="350" dy="26">ですか？」</tspan></text><rect x="492" y="118" width="152" height="92" rx="18" fill="url(#g-amber)" stroke="#D97706" stroke-width="2" filter="url(#sh)"/><text x="568" y="158" font-size="38" text-anchor="middle">🛒</text><text x="568" y="190" font-size="14.5" fill="#92400E" font-weight="700" text-anchor="middle"><tspan x="568" dy="0">EC サイト</tspan></text><line x1="568" y1="212" x2="568" y2="240" stroke="#F59E0B" stroke-width="2.4" marker-end="url(#arr-amber)" stroke-linecap="round"/><rect x="488" y="244" width="160" height="120" rx="20" fill="url(#g-amber)" stroke="#D97706" stroke-width="2" filter="url(#sh)"/><rect x="510" y="262" width="116" height="60" rx="10" fill="#FFFFFF" stroke="#FCD9A5" stroke-width="1.5"/><text x="568" y="308" font-size="38" text-anchor="middle">🛎️</text><text x="568" y="350" font-size="14" fill="#92400E" font-weight="700" text-anchor="middle">AIコンシェルジュ</text><rect x="468" y="386" width="200" height="92" rx="16" fill="url(#g-slate)" stroke="#94A3B8" stroke-width="2" filter="url(#sh)"/><path d="M557,387 L579,387 L568,372 z" fill="url(#g-slate)" stroke="#94A3B8" stroke-width="2"/><rect x="557" y="384" width="22" height="6" fill="url(#g-slate)"/><text x="568" y="426" font-size="14.5" fill="#334155" font-weight="600" text-anchor="middle"><tspan x="568" dy="0">「何をお探し</tspan><tspan x="568" dy="26">ですか？」</tspan></text><rect x="37.0" y="519.0" width="626" height="50" rx="25.0" fill="#D97706" filter="url(#sh2)"/><text x="68.0" y="545.28" font-size="16.8" text-anchor="middle">🛎️</text><text x="362.5" y="549.76" font-size="16" fill="#FFFFFF" font-weight="800" text-anchor="middle">AIは“サービス側”にいて、あなた個人のことは知らない</text></svg>