<svg xmlns="http://www.w3.org/2000/svg" width="900" height="640" viewBox="0 0 900 640" font-family="'Hiragino Sans','Hiragino Kaku Gothic ProN','Noto Sans JP','Yu Gothic',sans-serif"><defs><linearGradient id="g-page" x1="0" y1="0" x2="1" y2="1"><stop offset="0" stop-color="#FFFFFF"/><stop offset="1" stop-color="#F3F6FB"/></linearGradient><linearGradient id="g-blue" x1="0" y1="0" x2="0" y2="1"><stop offset="0" stop-color="#EFF6FF"/><stop offset="1" stop-color="#DBEAFE"/></linearGradient><linearGradient id="g-violet" x1="0" y1="0" x2="0" y2="1"><stop offset="0" stop-color="#F6F4FF"/><stop offset="1" stop-color="#EDE9FE"/></linearGradient><linearGradient id="g-amber" x1="0" y1="0" x2="0" y2="1"><stop offset="0" stop-color="#FFFBEB"/><stop offset="1" stop-color="#FEF1C9"/></linearGradient><linearGradient id="g-teal" x1="0" y1="0" x2="0" y2="1"><stop offset="0" stop-color="#ECFDF5"/><stop offset="1" stop-color="#CCFBEF"/></linearGradient><linearGradient id="g-rose" x1="0" y1="0" x2="0" y2="1"><stop offset="0" stop-color="#FFF1F2"/><stop offset="1" stop-color="#FFE0E4"/></linearGradient><linearGradient id="g-slate" x1="0" y1="0" x2="0" y2="1"><stop offset="0" stop-color="#F8FAFC"/><stop offset="1" stop-color="#EAEFF6"/></linearGradient><marker id="arr-blue" viewBox="0 0 10 10" refX="8.5" refY="5" markerWidth="7" markerHeight="7" orient="auto-start-reverse"><path d="M0,0 L10,5 L0,10 L3,5 z" fill="#3B82F6"/></marker><marker id="arr-violet" viewBox="0 0 10 10" refX="8.5" refY="5" markerWidth="7" markerHeight="7" orient="auto-start-reverse"><path d="M0,0 L10,5 L0,10 L3,5 z" fill="#8B5CF6"/></marker><marker id="arr-amber" viewBox="0 0 10 10" refX="8.5" refY="5" markerWidth="7" markerHeight="7" orient="auto-start-reverse"><path d="M0,0 L10,5 L0,10 L3,5 z" fill="#F59E0B"/></marker><marker id="arr-teal" viewBox="0 0 10 10" refX="8.5" refY="5" markerWidth="7" markerHeight="7" orient="auto-start-reverse"><path d="M0,0 L10,5 L0,10 L3,5 z" fill="#10B981"/></marker><marker id="arr-rose" viewBox="0 0 10 10" refX="8.5" refY="5" markerWidth="7" markerHeight="7" orient="auto-start-reverse"><path d="M0,0 L10,5 L0,10 L3,5 z" fill="#F43F5E"/></marker><marker id="arr-slate" viewBox="0 0 10 10" refX="8.5" refY="5" markerWidth="7" markerHeight="7" orient="auto-start-reverse"><path d="M0,0 L10,5 L0,10 L3,5 z" fill="#64748B"/></marker><marker id="arr-gray" viewBox="0 0 10 10" refX="8.5" refY="5" markerWidth="7.5" markerHeight="7.5" orient="auto-start-reverse"><path d="M0,0 L10,5 L0,10 L3,5 z" fill="#94A3B8"/></marker><filter id="sh" x="-25%" y="-25%" width="150%" height="160%"><feDropShadow dx="0" dy="3" stdDeviation="6" flood-color="#1E293B" flood-opacity="0.13"/></filter><filter id="sh2" x="-25%" y="-25%" width="150%" height="160%"><feDropShadow dx="0" dy="1.5" stdDeviation="3" flood-color="#1E293B" flood-opacity="0.10"/></filter></defs><rect x="10" y="10" width="880" height="620" rx="30" fill="url(#g-page)" stroke="#E2E8F0" stroke-width="1.5"/><text x="450.0" y="62" font-size="28" fill="#0F172A" font-weight="800" text-anchor="middle">🚪　人間は、あなたのサービスに“来なくなる”</text><text x="450.0" y="93.36" font-size="18" fill="#475569" font-weight="500" text-anchor="middle">アクセスするのは本人ではなく、その人のAIエージェント</text><rect x="40.0" y="210.0" width="132" height="44" rx="22.0" fill="#64748B" filter="url(#sh2)"/><text x="106" y="239.56" font-size="21" fill="#FFFFFF" font-weight="800" text-anchor="middle">従来</text><rect x="228.0" y="170.0" width="196" height="124" rx="18" fill="url(#g-blue)" stroke="#2563EB" stroke-width="2" filter="url(#sh)"/><text x="326" y="224" font-size="46" text-anchor="middle">🧑</text><text x="326" y="264" font-size="20" fill="#1E3A8A" font-weight="700" text-anchor="middle"><tspan x="326" dy="0">人間</tspan></text><rect x="596.0" y="170.0" width="232" height="124" rx="18" fill="url(#g-amber)" stroke="#D97706" stroke-width="2" filter="url(#sh)"/><text x="712" y="224" font-size="46" text-anchor="middle">🖥️</text><text x="712" y="264" font-size="20" fill="#92400E" font-weight="700" text-anchor="middle"><tspan x="712" dy="0">Webサイト</tspan><tspan x="712" dy="24">サービス</tspan></text><line x1="426" y1="232" x2="594" y2="232" stroke="#3B82F6" stroke-width="3" marker-end="url(#arr-blue)" stroke-linecap="round"/><text x="510" y="210" font-size="18" fill="#475569" font-weight="600" text-anchor="middle">自分で訪問・操作</text><line x1="70" y1="346" x2="830" y2="346" stroke="#E2E8F0" stroke-width="1.5" stroke-dasharray="3 6"/><rect x="34.0" y="440.0" width="168" height="44" rx="22.0" fill="#0D9488" filter="url(#sh2)"/><text x="118" y="469.2" font-size="20" fill="#FFFFFF" font-weight="800" text-anchor="middle">1人1AI時代</text><rect x="228.0" y="400.0" width="168" height="124" rx="18" fill="url(#g-blue)" stroke="#2563EB" stroke-width="2" filter="url(#sh)"/><text x="312" y="454" font-size="46" text-anchor="middle">🧑</text><text x="312" y="494" font-size="20" fill="#1E3A8A" font-weight="700" text-anchor="middle"><tspan x="312" dy="0">人間</tspan></text><rect x="438.0" y="400.0" width="204" height="124" rx="18" fill="url(#g-violet)" stroke="#7C3AED" stroke-width="2" filter="url(#sh)"/><text x="540" y="454" font-size="46" text-anchor="middle">🤖</text><text x="540" y="494" font-size="20" fill="#5B21B6" font-weight="700" text-anchor="middle"><tspan x="540" dy="0">AIエージェント</tspan></text><rect x="690.0" y="400.0" width="160" height="124" rx="18" fill="url(#g-amber)" stroke="#D97706" stroke-width="2" filter="url(#sh)"/><text x="770" y="454" font-size="46" text-anchor="middle">🖥️</text><text x="770" y="494" font-size="20" fill="#92400E" font-weight="700" text-anchor="middle"><tspan x="770" dy="0">サービス</tspan></text><line x1="398" y1="462" x2="436" y2="462" stroke="#3B82F6" stroke-width="3" marker-end="url(#arr-blue)" stroke-linecap="round"/><text x="417" y="440" font-size="18" fill="#475569" font-weight="600" text-anchor="middle">依頼</text><line x1="644" y1="462" x2="688" y2="462" stroke="#8B5CF6" stroke-width="3" marker-end="url(#arr-violet)" stroke-linecap="round"/><text x="666" y="440" font-size="17" fill="#475569" font-weight="600" text-anchor="middle">代わりに</text><text x="666" y="460" font-size="17" fill="#475569" font-weight="600" text-anchor="middle">アクセス</text><path d="M312,524 C312,586 770,586 770,524" fill="none" stroke="#F43F5E" stroke-width="2.4" stroke-dasharray="3 7" stroke-linecap="round"/><rect x="401.0" y="567.0" width="280" height="42" rx="21.0" fill="#E11D48" filter="url(#sh2)"/><text x="427.04" y="589.52" font-size="19.95" text-anchor="middle">🚫</text><text x="551.5" y="594.84" font-size="19" fill="#FFFFFF" font-weight="700" text-anchor="middle">人間はもう直接は来ない</text></svg>