<svg xmlns="http://www.w3.org/2000/svg" width="900" height="600" viewBox="0 0 900 600" font-family="'Hiragino Sans','Hiragino Kaku Gothic ProN','Noto Sans JP','Yu Gothic',sans-serif"><defs><linearGradient id="g-page" x1="0" y1="0" x2="1" y2="1"><stop offset="0" stop-color="#FFFFFF"/><stop offset="1" stop-color="#F3F6FB"/></linearGradient><linearGradient id="g-blue" x1="0" y1="0" x2="0" y2="1"><stop offset="0" stop-color="#EFF6FF"/><stop offset="1" stop-color="#DBEAFE"/></linearGradient><linearGradient id="g-violet" x1="0" y1="0" x2="0" y2="1"><stop offset="0" stop-color="#F6F4FF"/><stop offset="1" stop-color="#EDE9FE"/></linearGradient><linearGradient id="g-amber" x1="0" y1="0" x2="0" y2="1"><stop offset="0" stop-color="#FFFBEB"/><stop offset="1" stop-color="#FEF1C9"/></linearGradient><linearGradient id="g-teal" x1="0" y1="0" x2="0" y2="1"><stop offset="0" stop-color="#ECFDF5"/><stop offset="1" stop-color="#CCFBEF"/></linearGradient><linearGradient id="g-rose" x1="0" y1="0" x2="0" y2="1"><stop offset="0" stop-color="#FFF1F2"/><stop offset="1" stop-color="#FFE0E4"/></linearGradient><linearGradient id="g-slate" x1="0" y1="0" x2="0" y2="1"><stop offset="0" stop-color="#F8FAFC"/><stop offset="1" stop-color="#EAEFF6"/></linearGradient><marker id="arr-blue" viewBox="0 0 10 10" refX="8.5" refY="5" markerWidth="7" markerHeight="7" orient="auto-start-reverse"><path d="M0,0 L10,5 L0,10 L3,5 z" fill="#3B82F6"/></marker><marker id="arr-violet" viewBox="0 0 10 10" refX="8.5" refY="5" markerWidth="7" markerHeight="7" orient="auto-start-reverse"><path d="M0,0 L10,5 L0,10 L3,5 z" fill="#8B5CF6"/></marker><marker id="arr-amber" viewBox="0 0 10 10" refX="8.5" refY="5" markerWidth="7" markerHeight="7" orient="auto-start-reverse"><path d="M0,0 L10,5 L0,10 L3,5 z" fill="#F59E0B"/></marker><marker id="arr-teal" viewBox="0 0 10 10" refX="8.5" refY="5" markerWidth="7" markerHeight="7" orient="auto-start-reverse"><path d="M0,0 L10,5 L0,10 L3,5 z" fill="#10B981"/></marker><marker id="arr-rose" viewBox="0 0 10 10" refX="8.5" refY="5" markerWidth="7" markerHeight="7" orient="auto-start-reverse"><path d="M0,0 L10,5 L0,10 L3,5 z" fill="#F43F5E"/></marker><marker id="arr-slate" viewBox="0 0 10 10" refX="8.5" refY="5" markerWidth="7" markerHeight="7" orient="auto-start-reverse"><path d="M0,0 L10,5 L0,10 L3,5 z" fill="#64748B"/></marker><marker id="arr-gray" viewBox="0 0 10 10" refX="8.5" refY="5" markerWidth="7.5" markerHeight="7.5" orient="auto-start-reverse"><path d="M0,0 L10,5 L0,10 L3,5 z" fill="#94A3B8"/></marker><filter id="sh" x="-25%" y="-25%" width="150%" height="160%"><feDropShadow dx="0" dy="3" stdDeviation="6" flood-color="#1E293B" flood-opacity="0.13"/></filter><filter id="sh2" x="-25%" y="-25%" width="150%" height="160%"><feDropShadow dx="0" dy="1.5" stdDeviation="3" flood-color="#1E293B" flood-opacity="0.10"/></filter></defs><rect x="10" y="10" width="880" height="580" rx="30" fill="url(#g-page)" stroke="#E2E8F0" stroke-width="1.5"/><text x="450.0" y="62" font-size="30" fill="#0F172A" font-weight="800" text-anchor="middle">✨　UX から AX へ</text><text x="450.0" y="95.6" font-size="18" fill="#475569" font-weight="500" text-anchor="middle">これから重要になるのは「AIエージェント体験（AX）」</text><rect x="44" y="168" width="346" height="362" rx="22" fill="url(#g-slate)" stroke="#94A3B8" stroke-width="2" filter="url(#sh)"/><rect x="122.0" y="191.0" width="190" height="46" rx="23.0" fill="#64748B" filter="url(#sh2)"/><text x="217.0" y="221.56" font-size="21" fill="#FFFFFF" font-weight="800" text-anchor="middle">これまで</text><rect x="70" y="258" width="294" height="72" rx="12" fill="#FFFFFFEE" stroke="#FEF1C9" stroke-width="1.5" filter="url(#sh2)"/><text x="102" y="303.0" font-size="29" text-anchor="middle">🖥️</text><text x="134" y="286.96" font-size="19" fill="#92400E" font-weight="600" text-anchor="start"><tspan x="134" dy="0">各サービスが</tspan><tspan x="134" dy="27">AIコンシェルジュを用意</tspan></text><rect x="70" y="344" width="294" height="72" rx="12" fill="#FFFFFFEE" stroke="#DBEAFE" stroke-width="1.5" filter="url(#sh2)"/><text x="102" y="389.0" font-size="29" text-anchor="middle">🧑</text><text x="134" y="372.96" font-size="19" fill="#1E3A8A" font-weight="600" text-anchor="start"><tspan x="134" dy="0">人間が自ら</tspan><tspan x="134" dy="27">サービスを使う</tspan></text><rect x="70" y="428" width="294" height="72" rx="14" fill="#FFF7ED" stroke="#D97706" stroke-width="1.5" filter="url(#sh2)"/><text x="217.0" y="456" font-size="19" fill="#92400E" font-weight="800" text-anchor="middle"><tspan x="217.0" dy="0">👀 UX（ユーザー体験）</tspan><tspan x="217.0" dy="26">が競争力</tspan></text><text x="450.0" y="337.0" font-size="46" text-anchor="middle">➡️</text><text x="450.0" y="383.0" font-size="14.5" fill="#0D9488" font-weight="800" text-anchor="middle">パラダイムシフト</text><rect x="510" y="168" width="346" height="362" rx="22" fill="url(#g-teal)" stroke="#0D9488" stroke-width="2.4" filter="url(#sh)"/><rect x="588.0" y="191.0" width="190" height="46" rx="23.0" fill="#0D9488" filter="url(#sh2)"/><text x="683.0" y="221.56" font-size="21" fill="#FFFFFF" font-weight="800" text-anchor="middle">これから</text><rect x="536" y="258" width="294" height="72" rx="12" fill="#FFFFFFEE" stroke="#CCFBEF" stroke-width="1.5" filter="url(#sh2)"/><text x="568" y="303.0" font-size="29" text-anchor="middle">🔌</text><text x="600" y="286.96" font-size="19" fill="#065F46" font-weight="600" text-anchor="start"><tspan x="600" dy="0">各サービスが</tspan><tspan x="600" dy="27">API / MCP サーバーを用意</tspan></text><rect x="536" y="344" width="294" height="72" rx="12" fill="#FFFFFFEE" stroke="#EDE9FE" stroke-width="1.5" filter="url(#sh2)"/><text x="568" y="389.0" font-size="29" text-anchor="middle">🤖</text><text x="600" y="372.96" font-size="19" fill="#5B21B6" font-weight="600" text-anchor="start"><tspan x="600" dy="0">人間は自分の</tspan><tspan x="600" dy="27">AIエージェントに依頼</tspan></text><rect x="536" y="428" width="294" height="72" rx="14" fill="#ECFEFF" stroke="#0D9488" stroke-width="1.8" filter="url(#sh2)"/><text x="683.0" y="456" font-size="18" fill="#065F46" font-weight="800" text-anchor="middle"><tspan x="683.0" dy="0">✨ AX（AIエージェント体験）</tspan><tspan x="683.0" dy="26">が競争力</tspan></text></svg>