<svg xmlns="http://www.w3.org/2000/svg" width="1400" height="1100" viewBox="0 0 1400 1100" role="img" aria-label="透明性と心理的安全性（timeline）">
  <defs>
    <filter id="sh" x="-25%" y="-25%" width="150%" height="170%"><feDropShadow dx="0" dy="9" stdDeviation="12" flood-color="#0f172a" flood-opacity="0.16"/></filter>
    <marker id="arr" viewBox="0 0 12 12" refX="9" refY="6" markerWidth="8.5" markerHeight="8.5" orient="auto-start-reverse"><path d="M0,0 L12,6 L0,12 L3.6,6 Z" fill="#475569"/></marker>
    
  </defs>
  <style>.jp{font-family:"Inter","Hiragino Sans","Hiragino Kaku Gothic ProN","Noto Sans JP","Yu Gothic",sans-serif}</style>
  <rect width="1400" height="1100" fill="#f6f8fc"/><circle cx="1290" cy="110" r="270" fill="#d97706" opacity="0.08"/><circle cx="120" cy="980" r="300" fill="#06b6d4" opacity="0.08"/><text class="jp" x="80" y="80" font-size="38" font-weight="900" letter-spacing="3" fill="#d97706">DEV PRODUCTIVITY CON 2025</text>
    <text class="jp" x="78" y="142" font-size="58" font-weight="900" fill="#0f172a">透明性と心理的安全性（timeline）</text>
    <text class="jp" x="80" y="202" font-size="40" font-weight="800" fill="#475569">見えない決定・失敗を、辿れる形に残す</text><rect x="150" y="434" width="262" height="324" rx="22" fill="#94a3b8" opacity="0.07"/><rect x="412" y="434" width="612" height="324" rx="22" fill="#06b6d4" opacity="0.07"/><rect x="1024" y="434" width="226" height="324" rx="22" fill="#d97706" opacity="0.07"/><text class="jp" x="280" y="300" font-size="38" font-weight="900" fill="#475569" text-anchor="middle"><tspan x="280" dy="0">隠れている状態</tspan></text><text class="jp" x="700" y="300" font-size="38" font-weight="900" fill="#0e7490" text-anchor="middle"><tspan x="700" dy="0">あとから辿れる形に残す</tspan></text><text class="jp" x="1132" y="300" font-size="38" font-weight="900" fill="#b45309" text-anchor="middle"><tspan x="1132" dy="0">増幅</tspan></text><line x1="150" y1="596" x2="1250" y2="596" stroke="#cbd5e1" stroke-width="8" stroke-linecap="round"/><path d="M1190 596 L1250 596" fill="none" stroke="#475569" stroke-width="8"  marker-end="url(#arr)"/><line x1="272" y1="596" x2="272" y2="676" stroke="#64748b" stroke-width="4"/><circle cx="272" cy="596" r="18" fill="#64748b" stroke="#fff" stroke-width="4"/><g filter="url(#sh)"><rect x="88" y="676" width="369.11999999999995" height="168" rx="26" fill="#ffffff" stroke="#64748b" stroke-width="3"/></g><text class="jp" x="124" y="742" font-size="40" font-weight="900" fill="#0f172a" text-anchor="start"><tspan x="124" dy="0">🕳️ 不透明</tspan></text><text class="jp" x="124" y="794" font-size="38" font-weight="750" fill="#475569" text-anchor="start"><tspan x="124" dy="0">なぜこうなった？</tspan></text><line x1="486" y1="596" x2="486" y2="516" stroke="#06b6d4" stroke-width="4"/><circle cx="486" cy="596" r="18" fill="#06b6d4" stroke="#fff" stroke-width="4"/><g filter="url(#sh)"><rect x="321.01" y="348" width="329.97999999999996" height="168" rx="26" fill="#ffffff" stroke="#06b6d4" stroke-width="3"/></g><text class="jp" x="357.01" y="414" font-size="40" font-weight="900" fill="#0f172a" text-anchor="start"><tspan x="357.01" dy="0">📝 ADR</tspan></text><text class="jp" x="357.01" y="466" font-size="38" font-weight="750" fill="#475569" text-anchor="start"><tspan x="357.01" dy="0">意思決定を残す</tspan></text><line x1="700" y1="596" x2="700" y2="676" stroke="#06b6d4" stroke-width="4"/><circle cx="700" cy="596" r="18" fill="#06b6d4" stroke="#fff" stroke-width="4"/><g filter="url(#sh)"><rect x="496" y="676" width="407.99999999999994" height="168" rx="26" fill="#ffffff" stroke="#06b6d4" stroke-width="3"/></g><text class="jp" x="532" y="742" font-size="40" font-weight="900" fill="#0f172a" text-anchor="start"><tspan x="532" dy="0">📖 ポストモーテム</tspan></text><text class="jp" x="532" y="794" font-size="38" font-weight="750" fill="#475569" text-anchor="start"><tspan x="532" dy="0">絵本化で読む</tspan></text><line x1="916" y1="596" x2="916" y2="516" stroke="#06b6d4" stroke-width="4"/><circle cx="916" cy="596" r="18" fill="#06b6d4" stroke="#fff" stroke-width="4"/><g filter="url(#sh)"><rect x="712" y="348" width="407.99999999999994" height="168" rx="26" fill="#ffffff" stroke="#06b6d4" stroke-width="3"/></g><text class="jp" x="748" y="414" font-size="40" font-weight="900" fill="#0f172a" text-anchor="start"><tspan x="748" dy="0">🛡️ 心理的安全性</tspan></text><text class="jp" x="748" y="466" font-size="38" font-weight="750" fill="#475569" text-anchor="start"><tspan x="748" dy="0">失敗を罰しない</tspan></text><line x1="1130" y1="596" x2="1130" y2="676" stroke="#d97706" stroke-width="4"/><circle cx="1130" cy="596" r="18" fill="#d97706" stroke="#fff" stroke-width="4"/><g filter="url(#sh)"><rect x="942.8800000000001" y="676" width="369.11999999999995" height="168" rx="26" fill="#ffffff" stroke="#d97706" stroke-width="3"/></g><text class="jp" x="978.8800000000001" y="742" font-size="40" font-weight="900" fill="#0f172a" text-anchor="start"><tspan x="978.8800000000001" dy="0">📣 増幅</tspan></text><text class="jp" x="978.8800000000001" y="794" font-size="38" font-weight="750" fill="#475569" text-anchor="start"><tspan x="978.8800000000001" dy="0">兆候を共有・改善</tspan></text><rect x="80" y="892" width="1240" height="198" rx="24" fill="#eef2f7" stroke="#cbd5e1" stroke-width="2"/><text class="jp" x="120" y="942" font-size="38" font-weight="900" fill="#d97706">💬 補足</text><text class="jp" x="120" y="998" font-size="38" font-weight="700" fill="#334155" text-anchor="start"><tspan x="120" dy="0">カーネギーの逸話：100万ドルの失敗をした幹部に「君の訓練</tspan><tspan x="120" dy="50">に100万ドルかけたばかりだ」。</tspan></text>
</svg>
